<?xml version="1.0" encoding="utf-8"?>
<!-- Generator: Adobe Illustrator 27.1.1, SVG Export Plug-In . SVG Version: 6.00 Build 0)  -->
<svg version="1.1" id="Art_3.0" xmlns="http://www.w3.org/2000/svg" xmlns:xlink="http://www.w3.org/1999/xlink" x="0px" y="0px"
	 viewBox="0 0 48 48" style="enable-background:new 0 0 48 48;" xml:space="preserve">
<style type="text/css">
	.st0{fill:#FFFFFF;fill-opacity:0;}
	.st1{fill:#FFFFFF;}
</style>
<rect class="st0" width="48" height="48"/>
<path class="st1" d="M29.92041,7.5H7.5v33h33v-33H29.92041z M38.5,18.61621v10.76807l1,0.26807v9.84766h-9.84814l-0.26807-1
	H18.61572l-0.26807,1H8.49999v-9.84863l1-0.26758V18.61573l-1-0.26807V8.5h9.84814l0.26807,1h10.76807l0.26807-1H39.5v9.84863
	C39.5,18.34863,38.5,18.61621,38.5,18.61621z M17.5,15.5h-2v-2h2V15.5z M20.5,15.5h-2v-2h2V15.5z M17.5,18.5h-2v-2h2V18.5z
	 M20.5,18.5h-2v-2h2V18.5z M29.5,15.5h-2v-2h2V15.5z M32.5,15.5h-2v-2h2V15.5z M29.5,18.5h-2v-2h2V18.5z M32.5,18.5h-2v-2h2V18.5z
	 M17.5,23.5h-2v-2h2V23.5z M20.5,23.5h-2v-2h2V23.5z M17.5,26.5h-2v-2h2V26.5z M20.5,26.5h-2v-2h2V26.5z M29.5,23.5h-2v-2h2V23.5z
	 M32.5,23.5h-2v-2h2V23.5z M29.5,26.5h-2v-2h2V26.5z M32.5,26.5h-2v-2h2V26.5z M33.5,28.5h-19v3h-1v3h3v-3h-1v-2h8v2h-1v3h3v-3h-1
	v-2h8v2h-1v3h3v-3h-1V28.5z M15.5,33.5h-1v-1h1V33.5z M24.5,33.5h-1v-1h1V33.5z M33.5,33.5h-1v-1h1V33.5z"/>
</svg>
